Coordinates
version=1
nRows=31
nColumns=38
inDegrees=no

Units are S.I. units (second, meters, Newtons, ...)
If the header above contains a line with 'inDegrees', this indicates whether rotational values are in degrees (yes) or radians (no).

endheader
time	pelvis_tilt	pelvis_list	pelvis_rotation	pelvis_tx	pelvis_ty	pelvis_tz	hip_flexion_r	hip_adduction_r	hip_rotation_r	knee_angle_r	ankle_angle_r	subtalar_angle_r	mtp_angle_r	hip_flexion_l	hip_adduction_l	hip_rotation_l	knee_angle_l	ankle_angle_l	subtalar_angle_l	mtp_angle_l	lumbar_extension	lumbar_bending	lumbar_rotation	arm_flex_r	arm_add_r	arm_rot_r	elbow_flex_r	pro_sup_r	wrist_flex_r	wrist_dev_r	arm_flex_l	arm_add_l	arm_rot_l	elbow_flex_l	pro_sup_l	wrist_flex_l	wrist_dev_l
0	0.783667	1.50239	-2.45682	0.595189	1.53346	0.996785	-0.246751	-0.060269	0.00722204	0.674956	-0.0739016	0	0	0.399835	-0.00117438	-0.276978	0.675867	-0.195169	0	0	-0.533648	-0.12541	0.14628	-0.0197021	-0.294575	0.417068	0.531406	1.23626	0	0	0.0233316	-0.346784	0.460912	0.540217	1.14127	0	0
0.01	0.932657	1.51271	-2.59876	0.597114	1.52117	0.996124	-0.222411	-0.0521677	0.0324756	0.713213	-0.0949917	0	0	0.407733	-0.000395585	-0.261878	0.68816	-0.188255	0	0	-0.513848	-0.122043	0.145784	-0.0252673	-0.288869	0.41464	0.523672	1.23947	0	0	0.0202589	-0.347989	0.459228	0.537377	1.14631	0	0
0.02	1.14227	1.51893	-2.8043	0.598973	1.50892	0.996012	-0.19445	-0.047232	0.0591241	0.757143	-0.145591	0	0	0.4124	0.00165717	-0.253979	0.696172	-0.178466	0	0	-0.495165	-0.121518	0.140842	-0.0263861	-0.276699	0.397161	0.507777	1.27053	0	0	0.015122	-0.351442	0.462421	0.53496	1.13881	0	0
0.03	1.2561	1.51963	-2.91559	0.600771	1.49702	0.996688	-0.171851	-0.0441064	0.0841214	0.801972	-0.180756	0	0	0.407455	0.0032701	-0.256353	0.700585	-0.171876	0	0	-0.485996	-0.122711	0.135085	-0.0258552	-0.273289	0.402613	0.501855	1.27051	0	0	0.00899313	-0.355956	0.461698	0.538587	1.12817	0	0
0.04	1.33175	1.51733	-2.98816	0.602515	1.48538	0.997724	-0.149385	-0.0427555	0.104633	0.848817	-0.208706	0	0	0.398831	0.00794692	-0.260541	0.701212	-0.166108	0	0	-0.480694	-0.125707	0.127928	-0.0250641	-0.270098	0.407514	0.497773	1.27004	0	0	0.00362805	-0.360921	0.458987	0.543257	1.11865	0	0
0.05	1.3621	1.5147	-3.01635	0.604133	1.47383	0.998692	-0.126813	-0.0405319	0.123738	0.899495	-0.23414	0	0	0.387895	0.0123208	-0.267145	0.702294	-0.159082	0	0	-0.477283	-0.12876	0.12123	-0.0251977	-0.267783	0.412165	0.49635	1.26847	0	0	-0.00255597	-0.366573	0.45793	0.549073	1.11299	0	0
0.06	1.31721	1.51153	-2.96912	0.60584	1.46256	1.00006	-0.107859	-0.0372469	0.141267	0.949682	-0.247868	0	0	0.371486	0.0177891	-0.27117	0.700973	-0.154515	0	0	-0.479373	-0.130987	0.114839	-0.0261335	-0.266784	0.413795	0.498494	1.26574	0	0	-0.00626483	-0.371046	0.459188	0.552775	1.11039	0	0
0.07	1.28027	1.50813	-2.92984	0.607526	1.45146	1.00144	-0.0864408	-0.0325661	0.159182	1.00218	-0.279502	0	0	0.354691	0.0242785	-0.27183	0.697542	-0.146231	0	0	-0.479536	-0.133436	0.102932	-0.0205768	-0.262379	0.421335	0.490837	1.28094	0	0	-0.0174795	-0.372349	0.436291	0.559045	1.11414	0	0
0.08	1.24315	1.50511	-2.88773	0.609288	1.44024	1.00285	-0.0656853	-0.028359	0.167258	1.05029	-0.287003	0	0	0.337793	0.0311203	-0.268393	0.693762	-0.140718	0	0	-0.480961	-0.134207	0.0930702	-0.0189713	-0.260025	0.426963	0.488755	1.2818	0	0	-0.0221179	-0.37599	0.433359	0.562351	1.10995	0	0
0.09	1.21284	1.50239	-2.85282	0.610994	1.42919	1.00416	-0.043585	-0.0244236	0.17253	1.0971	-0.283734	0	0	0.321521	0.0371883	-0.264995	0.690236	-0.13558	0	0	-0.481827	-0.134622	0.0836503	-0.0178114	-0.258246	0.43238	0.488123	1.28225	0	0	-0.0264148	-0.379436	0.432246	0.565027	1.10777	0	0
0.1	1.1695	1.5	-2.80516	0.612709	1.41833	1.00547	-0.0214358	-0.0202211	0.175708	1.14254	-0.273649	0	0	0.304033	0.0419393	-0.262762	0.686684	-0.130726	0	0	-0.483295	-0.134044	0.0746626	-0.0172434	-0.257272	0.436289	0.4896	1.28135	0	0	-0.0305755	-0.382728	0.433198	0.567747	1.10628	0	0
0.11	1.10227	1.49831	-2.73363	0.614411	1.40761	1.00693	-0.000919749	-0.0145015	0.178127	1.18419	-0.263513	0	0	0.284559	0.0441833	-0.263248	0.682778	-0.127222	0	0	-0.486273	-0.131589	0.0671166	-0.0172877	-0.256959	0.438352	0.492171	1.27966	0	0	-0.0332545	-0.385168	0.435169	0.569758	1.10236	0	0
0.12	1.03336	1.49761	-2.66015	0.616186	1.39717	1.00847	0.0207794	-0.00791345	0.178664	1.22302	-0.250886	0	0	0.264988	0.0453911	-0.264614	0.676349	-0.123232	0	0	-0.487934	-0.127502	0.0568415	-0.0132255	-0.254738	0.442053	0.488608	1.28657	0	0	-0.0398553	-0.384139	0.42096	0.571736	1.10384	0	0
0.13	0.95844	1.49398	-2.57911	0.617465	1.38715	1.01013	0.04137	-0.00269238	0.177526	1.25981	-0.235745	0	0	0.243231	0.0479975	-0.265278	0.66854	-0.120368	0	0	-0.460192	-0.111819	-0.0210995	0.0363378	-0.241531	0.537864	0.438593	1.28476	0	0	-0.090172	-0.371274	0.362055	0.543407	1.07943	0	0
0.14	0.862782	1.49704	-2.47906	0.619916	1.37717	1.0118	0.0645817	0.00760652	0.176732	1.28895	-0.231871	0	0	0.224716	0.0439735	-0.26707	0.663442	-0.115769	0	0	-0.486428	-0.114918	0.0226259	0.0126973	-0.248265	0.488133	0.460788	1.2907	0	0	-0.0618992	-0.37935	0.381523	0.571967	1.09849	0	0
0.15	0.809933	1.49771	-2.42072	0.62153	1.36737	1.01341	0.0892053	0.0147425	0.174563	1.31435	-0.229472	0	0	0.20732	0.0429876	-0.268999	0.655991	-0.113614	0	0	-0.49285	-0.109361	0.0278538	0.00879116	-0.251205	0.481753	0.467284	1.28403	0	0	-0.050256	-0.376779	0.388309	0.566496	1.10302	0	0
0.16	1.07839	1.49887	-2.68439	0.622548	1.35689	1.01122	0.119263	-0.00657237	0.14064	1.31475	-0.176997	0	0	0.213057	0.0544387	-0.273969	0.656883	-0.104867	0	0	-0.473806	-0.118399	0.0331563	-0.00563614	-0.253972	0.477421	0.480648	1.25799	0	0	-0.0427928	-0.385068	0.418045	0.568292	1.09148	0	0
0.17	0.690712	1.49584	-2.28957	0.624924	1.34797	1.01714	0.136947	0.0252587	0.164908	1.35348	-0.22624	0	0	0.167476	0.0428651	-0.272849	0.633919	-0.110618	0	0	-0.50873	-0.098496	0.0415627	-0.00071624	-0.260251	0.472156	0.483898	1.25073	0	0	-0.0178703	-0.375248	0.432223	0.551033	1.08928	0	0
0.18	0.629264	1.49469	-2.22246	0.626645	1.33845	1.01914	0.158844	0.0321176	0.163551	1.36431	-0.22427	0	0	0.147314	0.0424252	-0.27392	0.621925	-0.110485	0	0	-0.514435	-0.092744	0.0425353	0.000625466	-0.2611	0.470627	0.482629	1.25009	0	0	-0.00846611	-0.371159	0.435204	0.544037	1.09053	0	0
0.19	0.578044	1.4937	-2.16595	0.628372	1.32893	1.02107	0.181596	0.0373928	0.160377	1.37145	-0.222094	0	0	0.127418	0.0425128	-0.274044	0.608458	-0.110545	0	0	-0.51916	-0.0872088	0.0444293	0.000474765	-0.262663	0.466948	0.483453	1.2479	0	0	0.00126239	-0.367034	0.439555	0.537028	1.09161	0	0
0.2	0.539286	1.49294	-2.12174	0.630096	1.3194	1.02275	0.203967	0.0416345	0.15689	1.37385	-0.219688	0	0	0.108791	0.0428459	-0.273871	0.59634	-0.110556	0	0	-0.522236	-0.0821805	0.0450824	-0.000191641	-0.264501	0.464002	0.485439	1.24628	0	0	0.00865646	-0.364305	0.444397	0.532691	1.09339	0	0
0.21	0.509731	1.49238	-2.08719	0.631709	1.30991	1.02431	0.226171	0.0454129	0.153844	1.37207	-0.216871	0	0	0.0902257	0.0436781	-0.272731	0.582455	-0.111026	0	0	-0.524485	-0.0777858	0.0460021	-0.00120584	-0.266655	0.461006	0.488065	1.24468	0	0	0.0157625	-0.361943	0.45048	0.52847	1.09682	0	0
0.22	0.479338	1.49204	-2.05235	0.633183	1.30042	1.02581	0.247924	0.0488275	0.149823	1.366	-0.213965	0	0	0.0719028	0.0436327	-0.272906	0.568102	-0.112296	0	0	-0.526241	-0.073455	0.0473233	-0.00231668	-0.268983	0.458025	0.490863	1.24311	0	0	0.0222653	-0.359993	0.455743	0.525401	1.09947	0	0
0.23	0.447389	1.49002	-2.01614	0.634555	1.29099	1.02754	0.266855	0.0509301	0.144642	1.35443	-0.208634	0	0	0.0500162	0.0460709	-0.267089	0.547403	-0.115739	0	0	-0.530932	-0.0697184	0.0516937	-0.00671129	-0.273441	0.451151	0.499689	1.23127	0	0	0.0337434	-0.360724	0.477616	0.522431	1.09038	0	0
0.24	0.408312	1.48921	-1.97288	0.635882	1.28149	1.02895	0.285581	0.054133	0.139444	1.33879	-0.20308	0	0	0.0307226	0.0453316	-0.26581	0.532588	-0.11758	0	0	-0.532637	-0.0649965	0.0525605	-0.00693463	-0.27775	0.456115	0.503268	1.22139	0	0	0.038965	-0.361779	0.489435	0.523495	1.08209	0	0
0.25	0.368946	1.48866	-1.92929	0.637212	1.27201	1.03024	0.303347	0.0567809	0.134026	1.31925	-0.198059	0	0	0.0120227	0.0441444	-0.265003	0.518525	-0.119094	0	0	-0.533787	-0.060002	0.0530223	-0.00736668	-0.280833	0.456233	0.505863	1.21912	0	0	0.0425925	-0.361379	0.493374	0.524738	1.08123	0	0
0.26	0.323906	1.48747	-1.87822	0.638771	1.2628	1.0315	0.319459	0.0580827	0.125695	1.2959	-0.191973	0	0	-0.00687088	0.0429658	-0.261431	0.504299	-0.120696	0	0	-0.536093	-0.0534739	0.0514571	-0.00770482	-0.284799	0.456339	0.51027	1.21727	0	0	0.0455898	-0.361017	0.495401	0.527461	1.07974	0	0
0.27	0.282663	1.48691	-1.82978	0.640399	1.25378	1.03258	0.335646	0.0583619	0.115785	1.26945	-0.187514	0	0	-0.0237503	0.0413829	-0.257305	0.492011	-0.122174	0	0	-0.537666	-0.0464144	0.0485832	-0.00760349	-0.28843	0.456807	0.51426	1.21664	0	0	0.0480012	-0.360794	0.495776	0.53105	1.07836	0	0
0.28	0.250264	1.48676	-1.79297	0.641691	1.24453	1.0335	0.351192	0.0586437	0.108469	1.24004	-0.183725	0	0	-0.0411099	0.040641	-0.254115	0.477239	-0.125638	0	0	-0.537979	-0.0414439	0.0479827	-0.00731356	-0.291086	0.457359	0.516152	1.21593	0	0	0.0502071	-0.360066	0.495558	0.533572	1.07713	0	0
0.29	0.307401	1.4824	-1.84461	0.643193	1.23577	1.03554	0.362719	0.0476929	0.100838	1.20586	-0.181249	0	0	-0.0756931	0.0502241	-0.255016	0.420365	-0.141809	0	0	-0.544055	-0.0445944	0.0437633	-0.00265868	-0.290324	0.456887	0.512034	1.21349	0	0	0.0580462	-0.358511	0.496943	0.531643	1.07757	0	0
0.3	0.288083	1.48437	-1.82161	0.644302	1.22659	1.03594	0.378269	0.046963	0.0940461	1.1716	-0.177658	0	0	-0.0904155	0.0499326	-0.250562	0.406082	-0.143297	0	0	-0.541801	-0.0405197	0.0433071	-0.00217964	-0.291914	0.455345	0.512694	1.21217	0	0	0.0606172	-0.357682	0.498922	0.533211	1.07741	0	0
